<svg width="24" height="25" viewBox="0 0 24 25" fill="none" xmlns="http://www.w3.org/2000/svg">
<g clip-path="url(#clip0_5_2360)">
<path d="M7.998 16.9334H11.998M7.998 11.9334H15.998M7.5 4.43341C5.944 4.48041 5.017 4.65341 4.375 5.29541C3.496 6.17541 3.496 7.59041 3.496 10.4214V16.9274C3.496 19.7594 3.496 21.1744 4.375 22.0544C5.253 22.9334 6.668 22.9334 9.496 22.9334H14.496C17.325 22.9334 18.739 22.9334 19.617 22.0534C20.497 21.1744 20.497 19.7594 20.497 16.9274V10.4214C20.497 7.59141 20.497 6.17541 19.617 5.29541C18.976 4.65341 18.048 4.48041 16.492 4.43341" stroke="white" stroke-width="1.5" stroke-linecap="round" stroke-linejoin="round"/>
<path d="M7.496 4.68341C7.496 3.71741 8.28 2.93341 9.246 2.93341H14.746C15.2101 2.93341 15.6552 3.11779 15.9834 3.44597C16.3116 3.77416 16.496 4.21928 16.496 4.68341C16.496 5.14754 16.3116 5.59266 15.9834 5.92085C15.6552 6.24904 15.2101 6.43341 14.746 6.43341H9.246C8.78187 6.43341 8.33675 6.24904 8.00857 5.92085C7.68038 5.59266 7.496 5.14754 7.496 4.68341Z" stroke="white" stroke-width="1.5" stroke-linecap="round" stroke-linejoin="round"/>
</g>
<defs>
<clipPath id="clip0_5_2360">
<rect width="24" height="24" fill="white" transform="translate(0 0.933411)"/>
</clipPath>
</defs>
</svg>
