<svg width="24" height="25" viewBox="0 0 24 25" fill="none" xmlns="http://www.w3.org/2000/svg">
<g clip-path="url(#clip0_5_2381)">
<path d="M14.8488 16.593C17.2578 16.593 19.2174 14.6334 19.2174 12.2256C19.2174 9.81544 17.2572 7.85584 14.8488 7.85584C12.4398 7.85584 10.4796 9.81604 10.4796 12.2256C10.4796 14.6334 12.4398 16.593 14.8488 16.593ZM14.8488 8.57464C15.8163 8.57607 16.7438 8.96118 17.4278 9.6455C18.1118 10.3298 18.4964 11.2575 18.4974 12.225C18.4963 13.1923 18.1115 14.1196 17.4275 14.8035C16.7434 15.4875 15.816 15.8721 14.8488 15.873C13.8814 15.8721 12.954 15.4875 12.2699 14.8036C11.5858 14.1197 11.2008 13.1924 11.1996 12.225C11.2002 10.2126 12.837 8.57464 14.8488 8.57464ZM22.827 20.7282C22.6356 17.3178 19.5372 17.109 19.4862 17.1072L10.191 17.1078C10.1598 17.109 7.06077 17.3184 6.86997 20.748V23.3328C6.86997 23.4283 6.9079 23.5199 6.97541 23.5874C7.04292 23.6549 7.13449 23.6928 7.22997 23.6928H22.467C22.5624 23.6928 22.654 23.6549 22.7215 23.5874C22.789 23.5199 22.827 23.4283 22.827 23.3328V20.7282ZM22.1076 22.9728H7.59057L7.58997 20.7678C7.74357 18.0108 10.1304 17.832 10.2108 17.8266L19.4652 17.826C19.5666 17.8326 21.9528 18.0114 22.107 20.748L22.1076 22.9728ZM7.57077 12.2988H7.57317C8.31297 12.2934 8.95377 12.0282 9.47757 11.5092C10.002 10.9854 10.2672 10.3446 10.2672 9.60364C10.2672 8.85904 10.0014 8.21704 9.47757 7.69744C8.95317 7.17364 8.31237 6.90784 7.57197 6.90784C6.82737 6.90784 6.18537 7.17364 5.66697 7.69684C5.14257 8.21704 4.87677 8.85904 4.87677 9.60364C4.87677 10.344 5.14257 10.9854 5.66637 11.5086C6.18597 12.0282 6.82617 12.294 7.57077 12.2988ZM5.98617 8.01544C6.42417 7.57324 6.94377 7.35784 7.57257 7.35784C8.19777 7.35784 8.71737 7.57324 9.16077 8.01724C9.60297 8.45524 9.81837 8.97484 9.81837 9.60424C9.81837 10.23 9.60297 10.749 9.16077 11.1906C8.71857 11.6292 8.19837 11.8452 7.57257 11.85C6.94257 11.8452 6.42297 11.6304 5.98497 11.1912C5.54217 10.7496 5.32677 10.23 5.32677 9.60424C5.32677 8.97424 5.54217 8.45524 5.98617 8.01544Z" fill="white"/>
<path d="M7.22305 10.6234C7.26369 10.6591 7.31596 10.6787 7.37005 10.6786C7.40223 10.6785 7.43402 10.6716 7.4633 10.6582C7.49258 10.6449 7.51868 10.6255 7.53985 10.6012L9.06325 8.85522C9.10239 8.81027 9.12208 8.75161 9.11797 8.69214C9.11386 8.63267 9.0863 8.57727 9.04135 8.53812C8.99639 8.49898 8.93773 8.47929 8.87826 8.4834C8.81879 8.48751 8.76339 8.51507 8.72425 8.56002L7.34845 10.1368L6.67165 9.55182C6.64935 9.53252 6.62347 9.5178 6.59548 9.50849C6.56749 9.49919 6.53794 9.49549 6.50853 9.49761C6.47911 9.49973 6.4504 9.50762 6.42403 9.52083C6.39766 9.53405 6.37415 9.55232 6.35485 9.57462C6.33554 9.59692 6.32082 9.6228 6.31152 9.65079C6.30222 9.67878 6.29852 9.70833 6.30064 9.73775C6.30275 9.76716 6.31064 9.79588 6.32386 9.82224C6.33707 9.84861 6.35535 9.87212 6.37765 9.89142L7.22305 10.6234ZM12.0776 6.81342C12.0776 6.81342 12.182 6.66342 12.4484 6.57342C12.6542 6.50382 12.7856 6.48282 12.7856 6.48282V4.73142C12.7856 4.27062 12.4448 3.87102 11.9252 3.87102H10.6088V4.57902H12.0776V6.81342ZM5.39545 5.60922H9.74005C9.96205 5.60922 10.1702 5.45322 10.1702 5.17062V4.14342C10.1702 3.75222 9.85885 3.43242 9.46825 3.43242H9.30145C9.10825 2.68242 8.37505 2.13342 7.56325 2.13342C6.75145 2.13342 6.01825 2.68242 5.82565 3.43242H5.66725C5.27665 3.43242 4.95685 3.75222 4.95685 4.14342V5.17062C4.95685 5.42502 5.14225 5.60922 5.39545 5.60922ZM7.56325 3.00222C8.04445 3.00222 8.43205 3.38982 8.43205 3.87102C8.43205 4.35222 8.04445 4.73982 7.56325 4.73982C7.44909 4.74006 7.33601 4.71775 7.23049 4.67417C7.12498 4.6306 7.02911 4.56661 6.94838 4.48589C6.86766 4.40516 6.80368 4.30929 6.7601 4.20378C6.71652 4.09826 6.69421 3.98518 6.69445 3.87102C6.69445 3.38982 7.08205 3.00222 7.56325 3.00222Z" fill="white"/>
<path d="M9.57119 14.4679H3.05759V4.57873H4.52639V3.87073H3.21059C2.74979 3.87073 2.35919 4.26973 2.35919 4.73113V14.3239C2.35919 14.7847 2.74979 15.1663 3.21059 15.1663H10.2474C10.2474 15.1669 9.71459 14.9461 9.57119 14.4679Z" fill="white"/>
</g>
<defs>
<clipPath id="clip0_5_2381">
<rect width="24" height="24" fill="white" transform="translate(0 0.933411)"/>
</clipPath>
</defs>
</svg>
