<svg width="153" height="153" viewBox="0 0 153 153" xmlns="http://www.w3.org/2000/svg">
  <path d="M20.881629 20.567598C20.881628 30.52 22.84189 40.3749 26.6505 49.5697C30.4591 58.7645 36.0415 67.1191 43.0789 74.1565C50.1163 81.1939 58.4709 86.7762 67.6657 90.5848C76.8604 94.3935 86.7154 96.3537 96.6677 96.3537L96.6677 64.8854C90.8478 64.8854 85.0849 63.7391 79.7081 61.5119C74.3312 59.2847 69.4456 56.0203 65.3303 51.905C61.215 47.7897 57.9506 42.9042 55.7234 37.5273C53.4963 32.1504 52.3499 26.3875 52.3499 20.567601L20.881629 20.567598Z" fill="#142E15" transform="translate(-20, 56)"/>
  <path d="M76.6677 152.354C91.6568 152.354 106.309 147.909 118.772 139.581C131.235 131.254 140.949 119.418 146.685 105.57C152.421 91.7216 153.922 76.4835 150.998 61.7825C148.073 47.0814 140.855 33.5776 130.257 22.9787C119.658 12.3799 106.154 5.16193 91.4529 2.2377C76.7518 -0.686521 61.5137 0.814295 47.6656 6.55037C33.8175 12.2864 21.9813 22.0001 13.6539 34.4631C5.32637 46.9261 0.881594 61.5785 0.881592 76.5676L32.3499 76.5676C32.3499 67.8024 34.9491 59.234 39.8188 51.946C44.6885 44.6579 51.61 38.9776 59.708 35.6233C67.806 32.269 76.7169 31.3914 85.3137 33.1014C93.9105 34.8114 101.807 39.0322 108.005 45.2302C114.203 51.4282 118.424 59.3248 120.134 67.9216C121.844 76.5185 120.966 85.4293 117.612 93.5273C114.258 101.625 108.577 108.547 101.289 113.417C94.0013 118.286 85.4329 120.885 76.6677 120.885L76.6677 152.354Z" fill="#3F9142"/>
  <circle cx="76.6677" cy="76.6677" r="37" fill="#F6F6F0"/>
</svg>