<svg width="22" height="21" viewBox="0 0 22 21" fill="none" xmlns="http://www.w3.org/2000/svg">
<path d="M21.4232 8.11812C21.3294 7.82986 21.1524 7.5758 20.9145 7.38795C20.6766 7.2001 20.3885 7.08686 20.0863 7.06249L14.5551 6.61624L12.4194 1.45155C12.3039 1.17013 12.1074 0.929412 11.8547 0.759996C11.6021 0.59058 11.3047 0.500122 11.0005 0.500122C10.6963 0.500122 10.399 0.59058 10.1463 0.759996C9.89369 0.929412 9.69712 1.17013 9.58163 1.45155L7.44788 6.61531L1.91381 7.06249C1.61117 7.08809 1.3228 7.20243 1.08485 7.39119C0.8469 7.57994 0.669943 7.83472 0.576151 8.12361C0.482359 8.41249 0.475904 8.72263 0.557593 9.01516C0.639283 9.3077 0.805485 9.56962 1.03538 9.76812L5.25413 13.4084L3.96881 18.8516C3.89693 19.1473 3.91453 19.4577 4.01938 19.7434C4.12423 20.0291 4.3116 20.2771 4.55771 20.4562C4.80382 20.6352 5.09757 20.737 5.40167 20.7488C5.70576 20.7605 6.00649 20.6817 6.26569 20.5222L11.0001 17.6084L15.7373 20.5222C15.9965 20.6798 16.2967 20.7571 16.5998 20.7445C16.903 20.7318 17.1956 20.6298 17.4409 20.4512C17.6861 20.2726 17.8731 20.0254 17.9782 19.7407C18.0832 19.4561 18.1017 19.1467 18.0313 18.8516L16.7413 13.4075L20.9601 9.76718C21.1918 9.56902 21.3595 9.30653 21.442 9.01296C21.5244 8.71939 21.5179 8.40796 21.4232 8.11812ZM19.9851 8.63093L15.4194 12.5684C15.3153 12.6582 15.2379 12.7748 15.1955 12.9056C15.1532 13.0364 15.1476 13.1763 15.1794 13.31L16.5744 19.1975C16.578 19.2056 16.5784 19.2148 16.5754 19.2232C16.5725 19.2315 16.5664 19.2385 16.5585 19.2425C16.5416 19.2556 16.5369 19.2528 16.5229 19.2425L11.3929 16.0878C11.2747 16.0152 11.1388 15.9767 11.0001 15.9767C10.8614 15.9767 10.7254 16.0152 10.6073 16.0878L5.47725 19.2444C5.46319 19.2528 5.45944 19.2556 5.44163 19.2444C5.43371 19.2403 5.42765 19.2334 5.42468 19.225C5.42172 19.2167 5.42208 19.2075 5.42569 19.1994L6.82069 13.3119C6.85248 13.1781 6.84691 13.0382 6.80458 12.9075C6.76226 12.7767 6.68481 12.66 6.58069 12.5703L2.01506 8.6328C2.00381 8.62343 1.9935 8.61499 2.00288 8.58593C2.01225 8.55687 2.01975 8.56062 2.03381 8.55874L8.02631 8.07499C8.16376 8.0632 8.29529 8.01373 8.40644 7.93203C8.51759 7.85032 8.60405 7.73954 8.65631 7.61187L10.9644 2.02343C10.9719 2.00749 10.9748 1.99999 10.9973 1.99999C11.0198 1.99999 11.0226 2.00749 11.0301 2.02343L13.3438 7.61187C13.3966 7.73958 13.4836 7.85025 13.5952 7.93164C13.7069 8.01303 13.8389 8.06199 13.9766 8.07312L19.9691 8.55687C19.9832 8.55687 19.9916 8.55687 20.0001 8.58405C20.0085 8.61124 20.0001 8.62156 19.9851 8.63093Z" fill="black"/>
</svg>
